<?xml version="1.0" encoding="UTF-8"?>
<svg version="1.1" xmlns="http://www.w3.org/2000/svg" width="192" height="192">
<path d="M0 0 C63.36 0 126.72 0 192 0 C192 63.36 192 126.72 192 192 C128.64 192 65.28 192 0 192 C0 128.64 0 65.28 0 0 Z " fill="#222222" transform="translate(0,0)"/>
<path d="M0 0 C8.91 0 17.82 0 27 0 C27 0.99 27 1.98 27 3 C25.02 3.66 23.04 4.32 21 5 C21 22.49 21 39.98 21 58 C31.76864096 42.27141609 31.76864096 42.27141609 42.375 26.4375 C46.64708084 19.9867432 50.95577072 13.57672153 55.44384766 7.27368164 C57.07752874 4.97457517 57.07752874 4.97457517 58.47729492 2.24316406 C58.9797876 1.50291992 59.48228027 0.76267578 60 0 C62.78599571 -0.38060051 64.93372751 -0.47962905 67.6875 -0.3125 C68.38939453 -0.28994141 69.09128906 -0.26738281 69.81445312 -0.24414062 C71.5438833 -0.18531647 73.27221438 -0.09563389 75 0 C75 0.99 75 1.98 75 3 C74.195625 3.12375 73.39125 3.2475 72.5625 3.375 C71.716875 3.58125 70.87125 3.7875 70 4 C68.64855346 6.70289308 68.88024835 8.80069806 68.88647461 11.82666016 C68.88655014 13.04777496 68.88662567 14.26888977 68.88670349 15.52700806 C68.89181048 16.86435995 68.89702648 18.20171143 68.90234375 19.5390625 C68.9042086 20.90383859 68.90563219 22.26861534 68.90663147 23.63339233 C68.91045137 27.22715093 68.92027717 30.82086917 68.93133545 34.41461182 C68.94156089 38.08108982 68.94613152 41.74757435 68.95117188 45.4140625 C68.9618999 52.60939341 68.97897001 59.80469105 69 67 C71.97 67.99 74.94 68.98 78 70 C78 70.66 78 71.32 78 72 C69.09 72 60.18 72 51 72 C51 71.34 51 70.68 51 70 C52.98 69.01 54.96 68.02 57 67 C57 49.84 57 32.68 57 15 C51.01191501 23.58005958 51.01191501 23.58005958 45.03515625 32.16796875 C44.36105713 33.13758545 43.68695801 34.10720215 42.99243164 35.10620117 C40.94841702 38.0749189 38.93949467 41.0653255 36.9375 44.0625 C36.3496875 44.92488281 35.761875 45.78726563 35.15625 46.67578125 C33.25185954 49.61171654 31.48483582 52.58560059 29.71875 55.60546875 C20.49103879 70.85246826 20.49103879 70.85246826 15.85253906 72.98925781 C11.38736171 73.86854806 7.37723269 73.22935046 3 72 C3 71.34 3 70.68 3 70 C4.98 69.01 6.96 68.02 9 67 C9 46.54 9 26.08 9 5 C4.545 4.01 4.545 4.01 0 3 C0 2.01 0 1.02 0 0 Z " fill="#EFEFEF" transform="translate(91,59)"/>
<path d="M0 0 C8.25 0 16.5 0 25 0 C25 0.99 25 1.98 25 3 C22.69 3.33 20.38 3.66 18 4 C19.41991421 10.42010289 22.36581567 15.38196165 25.8125 20.9375 C26.33392578 21.79279297 26.85535156 22.64808594 27.39257812 23.52929688 C29.40162835 26.81751765 31.42064068 30.0969531 33.50146484 33.34033203 C33.95859863 34.05431152 34.41573242 34.76829102 34.88671875 35.50390625 C35.29494873 36.13240479 35.70317871 36.76090332 36.1237793 37.40844727 C37 39 37 39 37 41 C37.66 41 38.32 41 39 41 C39.5259375 39.205625 39.5259375 39.205625 40.0625 37.375 C41.91320452 31.77861121 44.58226029 26.6501018 47.28125 21.4296875 C51.26192739 13.63089785 51.26192739 13.63089785 52 5 C49.69 4.34 47.38 3.68 45 3 C45 2.01 45 1.02 45 0 C52.26 0 59.52 0 67 0 C67 0.99 67 1.98 67 3 C66.278125 3.391875 65.55625 3.78375 64.8125 4.1875 C59.15997106 7.83024087 56.72002601 14.33013914 54.1484375 20.34765625 C52.46209427 24.24230608 50.65294722 28.07848725 48.84814453 31.91918945 C47.21717995 35.39047016 45.60177815 38.86735485 44.015625 42.359375 C32.09579527 68.45210236 32.09579527 68.45210236 21 74 C17.32820897 74.47892926 15.64366046 74.47427613 12.625 72.25 C10.14645217 67.29290434 10.68752286 62.44231023 11 57 C12.32 57 13.64 57 15 57 C15.309375 57.969375 15.61875 58.93875 15.9375 59.9375 C16.69523342 62.84065792 16.69523342 62.84065792 18 64 C20.7412565 64.7555432 20.7412565 64.7555432 24 64 C27.95788168 60.82402163 30.58374467 57.71218324 31.79296875 52.73828125 C32.0428242 48.22674038 31.12259705 46.53915819 28.73046875 42.75390625 C28.37851944 42.1848909 28.02657013 41.61587555 27.66395569 41.02961731 C26.52327364 39.19512463 25.35650063 37.37905112 24.1875 35.5625 C23.39717493 34.30715075 22.60844209 33.05079771 21.82128906 31.79345703 C20.26852601 29.31794692 18.70603399 26.8490117 17.13623047 24.38427734 C15.31223935 21.51053322 13.5492706 18.60562582 11.81640625 15.67578125 C11.14992065 14.55997681 11.14992065 14.55997681 10.4699707 13.42163086 C9.68258033 12.1006996 8.90315168 10.7749744 8.13354492 9.44360352 C5.90952512 5.79246576 4.16155426 4.12041845 0 3 C0 2.01 0 1.02 0 0 Z " fill="#F1F1F1" transform="translate(23,59)"/>
<path d="M0 0 C0.33 0 0.66 0 1 0 C1 3.96 1 7.92 1 12 C-2.96 12 -6.92 12 -11 12 C-10.29875 11.505 -9.5975 11.01 -8.875 10.5 C-5.76915639 7.79926643 -3.60065264 4.95143724 -1.234375 1.609375 C-0.82703125 1.07828125 -0.4196875 0.5471875 0 0 Z " fill="#000000" transform="translate(191,180)"/>
<path d="M0 0 C0.495 0.70125 0.99 1.4025 1.5 2.125 C4.20073357 5.23084361 7.04856276 7.39934736 10.390625 9.765625 C10.92171875 10.17296875 11.4528125 10.5803125 12 11 C12 11.33 12 11.66 12 12 C8.04 12 4.08 12 0 12 C0 8.04 0 4.08 0 0 Z " fill="#000000" transform="translate(0,180)"/>
<path d="M0 0 C3.96 0 7.92 0 12 0 C12 3.96 12 7.92 12 12 C11.505 11.29875 11.01 10.5975 10.5 9.875 C7.79926643 6.76915639 4.95143724 4.60065264 1.609375 2.234375 C1.07828125 1.82703125 0.5471875 1.4196875 0 1 C0 0.67 0 0.34 0 0 Z " fill="#000000" transform="translate(180,0)"/>
<path d="M0 0 C3.96 0 7.92 0 12 0 C11.29875 0.495 10.5975 0.99 9.875 1.5 C6.76915639 4.20073357 4.60065264 7.04856276 2.234375 10.390625 C1.82703125 10.92171875 1.4196875 11.4528125 1 12 C0.67 12 0.34 12 0 12 C0 8.04 0 4.08 0 0 Z " fill="#000000" transform="translate(0,0)"/>
</svg>
